PathFileType	4	(X/Y/Z)	Patient4_TMGait_0pt6_02_left_25.trc.trc
DataRate	CameraRate	NumFrames	NumMarkers	Units	OrigDataRate	OrigDataStartFrame	OrigNumFrames
82.352941176471	82.352941176471	5	33	mm	82.352941176471	71	       141
Frame#	Time	Sacral			L.Shoulder			Chest			R.Shoulder			Neck			R.ASIS			L.ASIS			R.Thigh.Superior			R.Thigh.Lateral			R.Thigh.Inferior			R.Patella			L.Thigh.Superior			L.Thigh.Lateral			L.Thigh.Inferior			L.Patella			L.Shank.Superior			L.Shank.Lateral			L.Shank.Inferior			R.Shank.Superior			R.Shank.Lateral			R.Shank.Inferior			R.Heel			R.Midfoot.Superior			R.Midfoot.Lateral			R.Toe			L.Heel			L.Midfoot.Lateral			L.Midfoot.Superior			L.Toe			L.Elbow			L.Wrist			R.Elbow			R.Wrist			
		X1	Y1	Z1	X2	Y2	Z2	X3	Y3	Z3	X4	Y4	Z4	X5	Y5	Z5	X6	Y6	Z6	X7	Y7	Z7	X8	Y8	Z8	X9	Y9	Z9	X10	Y10	Z10	X11	Y11	Z11	X12	Y12	Z12	X13	Y13	Z13	X14	Y14	Z14	X15	Y15	Z15	X16	Y16	Z16	X17	Y17	Z17	X18	Y18	Z18	X19	Y19	Z19	X20	Y20	Z20	X21	Y21	Z21	X22	Y22	Z22	X23	Y23	Z23	X24	Y24	Z24	X25	Y25	Z25	X26	Y26	Z26	X27	Y27	Z27	X28	Y28	Z28	X29	Y29	Z29	X30	Y30	Z30	X31	Y31	Z31	X32	Y32	Z32	X33	Y33	Z33	

71	31.440000000000	869.935841987635	996.081039262762	427.670856755983	1059.700833271258	1415.030162430529	236.999075244564	1152.642526190896	1351.566122594002	404.779426220467	1061.360614243121	1438.982830645376	567.757147057595	1053.306410268743	1482.277004966554	383.240413926064	1090.803180870507	932.844181693141	554.624051070010	1088.346266690070	951.646263558007	279.502626811814	1169.036776707340	763.659631774877	531.550952102604	1121.859092261184	636.514555985649	596.014709459832	1218.555428954001	606.763455128676	523.415587456457	1250.707416573087	523.530239184002	535.673552879500	1089.757828613140	727.154135103986	307.682213759604	973.531956114611	634.472465777455	240.741008871295	1028.623265200771	539.988096538748	307.149431272106	1011.657052827012	473.832426904663	316.006314949199	979.063939863233	407.287030583193	306.006586545785	876.895389493563	304.223897132130	252.969396486699	913.326824732048	188.329927645628	326.311480652477	1238.371485727805	432.646152816254	541.437345116854	1184.601101510268	315.693509189724	597.223333354925	1258.328271318082	233.758243134955	546.077401429941	1172.223144805326	46.859782144945	508.917969195590	1330.938387168035	124.052637091374	555.477452892397	1254.721848089357	45.534691627718	584.276045930083	1456.023687238693	89.711494360409	582.068122508099	773.562554954782	38.084736810178	368.923344534046	845.445818636237	34.472614068808	286.539568525836	929.461415889903	95.600294470843	312.431905646340	1057.260941051150	44.363604512899	280.999934490364	1091.196865277746	1072.300149670373	104.560269153085	1338.029735612903	1009.530807735069	140.305500686767	894.654750067975	1155.408495694792	707.788195748017	854.627037037603	901.676134225389	757.982462976940	
72	31.452142857143	872.491080714217	993.930406154068	430.141240643558	1059.804926220490	1413.576829466550	239.780578701632	1153.282526395263	1350.735029943791	407.559787537680	1061.139012420406	1437.443035295455	570.557133588825	1052.950403026526	1480.737007870617	386.019860792711	1093.824904269109	930.801347512862	556.702226194469	1090.940485629936	949.760593144326	281.663182753867	1171.362387379560	759.401041354985	533.265322978790	1121.173088283442	632.860048063464	596.195310064996	1217.549813610388	602.345792098515	523.662708033508	1247.810772470236	518.553794667419	535.108267187711	1090.830069299714	725.114490238658	308.939986773059	973.256851006576	633.472496932856	242.428340822359	1027.718902801226	538.256324440976	308.332300327701	1010.170286704036	471.721530922958	317.120843276847	976.415690236866	405.724345699456	307.060708254172	872.566235451439	304.294814330634	253.933402366953	907.368953781758	187.599725659775	326.716764005207	1234.716022603524	427.477081737736	540.945676080054	1179.443672109287	310.914792186050	596.092525000737	1252.162265438766	228.377574365280	544.714950216231	1162.914958580413	44.296789652992	507.018890204910	1323.157551476745	117.765751362141	553.558069951606	1244.919535353163	42.006357734216	582.971815578759	1447.470410327841	80.458877112168	581.166634239156	766.201155975212	38.032199740242	368.864570543156	838.170288176163	34.337784622740	286.585382911462	922.318538355384	95.450122827807	312.481102392689	1050.116126142370	43.964144439328	280.929036930462	1088.556795920173	1069.959992658912	108.062230906778	1336.012978844809	1010.846027833186	144.370702051435	895.552399012447	1152.737330736806	709.530978786534	858.130420498263	898.335556951406	759.229828948165	
73	31.464285714286	874.902668991496	991.976165912596	432.684057874246	1059.978661976524	1412.247208595414	242.684928391808	1154.048518533488	1349.952362315776	410.429047825949	1061.129404115740	1435.895084399332	573.521716370667	1052.806047193632	1479.334813042741	388.979576446506	1096.778243110460	928.972438077774	558.808287995037	1093.440585259691	948.047124199561	283.840223618677	1173.669553207555	755.454337826681	534.792228741389	1120.824554641825	629.783682067551	596.468070480817	1216.577732469721	598.470888200562	523.610911487119	1245.102400803267	514.121057366392	534.330314015330	1092.378491538890	723.221982198778	310.374734511345	973.666980273052	632.352679691385	244.399782592185	1027.800935585905	536.493252338877	309.780226461460	1009.790131738851	469.367502971888	318.447831324530	974.611980990178	404.003868636064	308.324025826808	868.861849264743	304.506910777109	255.073902869458	901.745936019167	186.899497640284	327.173652916920	1231.297152291575	422.882776134060	540.335723255284	1174.795007911782	306.757777812355	595.196357183752	1246.234972300952	223.573103583869	543.315090358955	1153.584362840790	42.360681203647	505.517131950218	1315.495292032667	112.105475942003	551.522001944562	1235.255298245116	39.238141230033	581.896489899400	1439.041891594905	71.798277642586	579.922473175235	758.878725660667	38.276159450985	368.759744538098	830.950465647762	34.312342991403	286.622820667595	915.336381269855	95.316963915023	312.479688212497	1043.044138273911	43.468307236175	280.837011797048	1085.716022875790	1067.642486990142	111.792166627510	1333.570902379035	1010.971173617733	148.427998974494	897.502520750964	1149.310374250716	711.263698627952	862.861529920899	894.255061621877	760.402722223042	
74	31.476428571429	877.103123734010	990.330717491433	435.264933129913	1060.277818320012	1411.142513935736	245.683377823100	1154.941434040366	1349.285373385544	413.368446108432	1061.363395256205	1434.450218641822	576.619583336688	1052.929757476415	1478.169691503613	392.089746577750	1099.552377267183	927.487689679555	560.983499042054	1095.767806588056	946.661987830721	286.070149411382	1175.860590550910	752.072778117936	536.165019432653	1120.870010172852	627.449536047518	596.906800643852	1215.706090119028	595.347971552285	523.357190992760	1242.692662097079	510.440918447028	533.463911776275	1094.360725796887	721.583471142197	312.078284410115	974.826160768359	631.150682127964	246.664295164338	1028.975328195932	534.765035645169	311.521652026871	1010.652455518563	466.826318108559	319.959929165431	973.750282959024	402.181983355081	309.778756359573	865.877789426272	304.954663509834	256.382509432457	896.549274963108	186.327505882185	327.657709960372	1228.244199254536	419.059333779471	539.700478119039	1170.808473149428	303.398441006050	594.616408208824	1240.724571985719	219.544237501141	541.964489785889	1144.565610877603	41.054392295663	504.398791221216	1308.133439247247	107.335376023513	549.504149175691	1226.041243337588	37.283238499752	581.063757999307	1430.961155768335	64.229028895870	578.512370268053	751.639092813849	39.021819849577	368.601054184767	823.810349782332	34.510858612972	286.645268890043	908.582378508527	95.236665009508	312.403318995667	1036.036636794934	42.878446960526	280.724928170840	1082.662801302688	1065.464273325043	115.754327522938	1330.689776208485	1009.889495931892	152.460816213587	900.572370059102	1145.267581262356	713.013507530203	868.898375889745	889.571089593084	761.466872766410	
75	31.488571428571	879.039979974324	989.090244190792	437.859945834821	1060.751704631333	1410.353860188759	248.744616202378	1155.950352434251	1348.795185678019	416.357292804190	1061.857748602318	1433.220519150774	579.810955026729	1053.355004879897	1477.327007479174	395.310029979970	1102.050689423365	926.453270448251	563.277461497496	1097.847356567719	945.733985242813	288.400947372494	1177.863306024211	749.474716435984	537.437404181987	1121.326384033221	625.953957464472	597.569169414656	1214.994999998794	593.103965177722	523.033951669458	1240.643776656800	507.624337282204	532.660691168671	1096.721408295547	720.302921712146	314.112376309073	976.785146580222	629.908722748795	249.204212026511	1031.341878693437	533.144343969007	313.546214066113	1012.881802357065	464.172102214890	321.593594896965	973.930857969805	400.325383757211	311.378315981808	863.716782332188	305.741549276522	257.832988681442	891.883884560037	185.999488279292	328.135569057485	1225.604481890405	416.105193609475	539.149519342902	1167.489435631220	300.928174202159	594.413843700643	1235.668154246652	216.389525439882	540.759200162176	1136.030740605626	40.317060675988	503.631551599583	1301.113914663463	103.600861583964	547.652537395286	1217.420227388948	36.093795074005	580.473080617258	1423.303737163022	58.077280966092	577.116226658413	744.544880052502	40.512123829938	368.385040179460	816.780995989948	35.082047077662	286.646529000060	902.132202526791	95.257605628359	312.230671597088	1029.075502313695	42.200278831234	280.597161003912	1079.388441009563	1063.545651989019	119.949259104775	1327.339471509613	1007.600687606072	156.457661388923	904.794154366196	1140.782631724879	714.802008431511	876.319061114563	884.451078355844	762.387733077789	
